<?xml version="1.0" encoding="UTF-8"?>
<svg version="1.1" xmlns="http://www.w3.org/2000/svg" width="886" height="310">
<path d="M0 0 C292.38 0 584.76 0 886 0 C886 102.3 886 204.6 886 310 C593.62 310 301.24 310 0 310 C0 207.7 0 105.4 0 0 Z " fill="#F7FCFD" transform="translate(0,0)"/>
<path d="M0 0 C4.47071151 0.00581142 8.94101097 -0.01122238 13.41165447 -0.03434467 C16.91315516 -0.04922462 20.41455948 -0.04993505 23.9160862 -0.04683495 C25.56274042 -0.04734006 27.20940124 -0.05242086 28.85602379 -0.06264687 C58.90441933 -0.22658551 58.90441933 -0.22658551 70.67260742 8.31567383 C72.25041992 9.33661133 72.25041992 9.33661133 73.86010742 10.37817383 C83.05471995 18.67886569 84.9977025 32.91665137 85.84181976 44.67219925 C86.11031688 50.52198899 86.09391327 56.37123689 86.07104492 62.22583008 C86.07307384 64.09134535 86.07599201 65.95685983 86.07974243 67.82237244 C86.0841263 71.70246041 86.07786273 75.58233902 86.0637207 79.46240234 C86.04661925 84.38955615 86.0565015 89.31621978 86.0744381 94.24335575 C86.08537321 98.08625358 86.08178566 101.92903866 86.07405472 105.77194023 C86.07208009 107.58687844 86.0744134 109.40182753 86.08149338 111.21675301 C86.13074785 127.38071381 85.93903119 145.54394493 74.82104492 158.46801758 C65.07323914 167.65270311 52.58951671 169.61968577 39.65576172 169.60620117 C38.70957977 169.6129184 37.76339783 169.61963562 36.7885437 169.6265564 C33.69124965 169.64540068 30.59417381 169.64945357 27.49682617 169.65161133 C25.3226564 169.65804819 23.14848747 169.6647772 20.97431946 169.67178345 C16.42784621 169.68372197 11.88144875 169.68746775 7.33496094 169.6862793 C1.53850003 169.6860762 -4.25747014 169.71338502 -10.05381489 169.74782372 C-14.54168384 169.77017075 -19.02943609 169.77411446 -23.51735497 169.77305984 C-25.65297322 169.7754038 -27.78859529 169.7841585 -29.9241581 169.79972458 C-57.90700686 169.98462031 -57.90700686 169.98462031 -68.61645508 161.01489258 C-79.90590312 149.80276952 -81.50813443 136.56464173 -81.62167645 121.35400581 C-81.63122184 118.54691746 -81.63048311 115.73996344 -81.62817383 112.93286133 C-81.63207002 110.94906527 -81.63640656 108.96527003 -81.64115906 106.98147583 C-81.64859148 102.83438407 -81.6483527 98.68737746 -81.64306641 94.5402832 C-81.63729067 89.27230259 -81.6541716 84.00467573 -81.67741108 78.73675346 C-81.69227576 74.64075747 -81.69300272 70.54484404 -81.68990135 66.44882584 C-81.69040868 64.50910876 -81.69553348 62.56938632 -81.70571327 60.62969589 C-81.87153852 24.6044486 -81.87153852 24.6044486 -70.51098633 11.16723633 C-53.66387409 -4.96514994 -21.57843495 -0.03042986 0 0 Z " fill="#3A7AFD" transform="translate(119.327392578125,72.684326171875)"/>
<path d="M0 0 C5.61 0 11.22 0 17 0 C17.33 1.98 17.66 3.96 18 6 C18.51304687 5.566875 19.02609375 5.13375 19.5546875 4.6875 C27.68128753 -1.22275457 36.32679846 -1.42965076 46 0 C53.95649292 2.25912875 60.25754821 7.44824236 64.50390625 14.49609375 C69.4291582 23.93966801 70.35031889 33.39677183 67.76171875 43.76953125 C64.5408259 53.20096621 58.8956095 60.4888813 50 65 C45.36285999 66.8652912 41.30152398 67.35443104 36.3125 67.4375 C35.00925781 67.47746094 33.70601562 67.51742187 32.36328125 67.55859375 C28 67 28 67 17 62 C16.67 73.55 16.34 85.1 16 97 C10.72 97 5.44 97 0 97 C0 64.99 0 32.98 0 0 Z " fill="#080809" transform="translate(616,135)"/>
<path d="M0 0 C8.91636134 5.56154311 15.51329189 13.79231444 18.078125 24.1328125 C19.89593242 36.05985506 17.17702616 46.90053096 10.078125 56.68359375 C4.1180833 63.91050422 -4.25494347 68.90263658 -13.5390625 70.64453125 C-25.47853313 71.55487212 -35.2187496 69.33588856 -44.5390625 61.64453125 C-52.00430023 54.72294316 -56.95687625 46.28012788 -57.7421875 35.98046875 C-57.93685318 23.68408675 -54.89267979 14.62846772 -46.5703125 5.48046875 C-33.15835728 -7.49414011 -16.18276946 -8.63910924 0 0 Z " fill="#F7FCFD" transform="translate(141.5390625,134.35546875)"/>
<path d="M0 0 C4.95 0 9.9 0 15 0 C15 2.64 15 5.28 15 8 C15.59167969 7.59007812 16.18335938 7.18015625 16.79296875 6.7578125 C17.58316406 6.21898437 18.37335938 5.68015625 19.1875 5.125 C20.35345703 4.32449219 20.35345703 4.32449219 21.54296875 3.5078125 C29.20587113 -1.19469993 38.31304455 -1.32219836 46.95703125 0.6875 C56.90213085 4.35389616 62.23936444 10.71835819 67 20 C69.94313705 28.82941114 69.00365291 41.20100871 65.3359375 49.66796875 C60.45788934 58.18315809 53.47555128 64.28254174 44 67 C41.02737207 67.43914201 38.12652736 67.51036797 35.125 67.5 C34.38636719 67.52835937 33.64773438 67.55671875 32.88671875 67.5859375 C25.6091786 67.61116294 23.31509556 65.65754778 16 62 C15.67 73.22 15.34 84.44 15 96 C10.05 96 5.1 96 0 96 C0 64.32 0 32.64 0 0 Z " fill="#030304" transform="translate(259,135)"/>
<path d="M0 0 C5.28 0 10.56 0 16 0 C16 2.64 16 5.28 16 8 C16.77085937 7.50628906 17.54171875 7.01257813 18.3359375 6.50390625 C19.33882813 5.86324219 20.34171875 5.22257813 21.375 4.5625 C22.87160156 3.60537109 22.87160156 3.60537109 24.3984375 2.62890625 C30.29501923 -1.06309762 36.16628717 -0.63704103 43 0 C49.64243274 2.04926116 54.55312637 5.73396544 59 11 C59 11.66 59 12.32 59 13 C59.66 12.29875 60.32 11.5975 61 10.875 C67.55918864 4.31581136 73.67490387 -0.27255992 83.125 -0.4375 C90.02928643 -0.41742697 95.47421627 0.70331583 101 5 C106.00149432 10.17900038 109.26491888 15.73819691 109.22705078 23.06567383 C109.22689972 24.04631302 109.22674866 25.02695221 109.22659302 26.03730774 C109.21627045 27.0833165 109.20594788 28.12932526 109.1953125 29.20703125 C109.1924826 30.28756271 109.18965271 31.36809418 109.18673706 32.48136902 C109.17556132 35.92519301 109.15046118 39.36875489 109.125 42.8125 C109.11496685 45.15038686 109.10584158 47.48827781 109.09765625 49.82617188 C109.07563046 55.55088191 109.04111821 61.27539655 109 67 C104.05 67 99.1 67 94 67 C93.9906543 65.86046875 93.98130859 64.7209375 93.97167969 63.546875 C93.93158945 59.28981472 93.86577905 55.03346273 93.79248047 50.77685547 C93.76438069 48.94003447 93.74311182 47.10309503 93.72900391 45.26611328 C93.70742103 42.61429686 93.66069501 39.96388815 93.609375 37.3125 C93.60814636 36.50071289 93.60691772 35.68892578 93.60565186 34.85253906 C93.46199218 29.16837022 92.19360018 24.75435218 89 20 C85.41179478 17.00786177 82.60515637 16.61113899 78 16.6875 C76.989375 16.69136719 75.97875 16.69523437 74.9375 16.69921875 C71.90252407 17.00998091 69.70693984 17.60333423 67 19 C65.68931667 21.44288628 65.68931667 21.44288628 65 24 C64.67 24.66 64.34 25.32 64 26 C63.84254174 29.0604194 63.74133123 32.101419 63.68359375 35.1640625 C63.66281265 36.07127045 63.64203156 36.97847839 63.62062073 37.91317749 C63.55512865 40.8170398 63.49624186 43.72099405 63.4375 46.625 C63.39431445 48.59115542 63.35070015 50.55730147 63.30664062 52.5234375 C63.19944761 57.34886362 63.09817919 62.1743824 63 67 C57.72 67 52.44 67 47 67 C46.98598145 65.23740845 46.98598145 65.23740845 46.97167969 63.43920898 C46.93164665 59.05732051 46.86585126 54.67612432 46.79248047 50.29467773 C46.76434784 48.40251596 46.74309512 46.51023836 46.72900391 44.61791992 C46.70746714 41.8892113 46.66076331 39.16188409 46.609375 36.43359375 C46.60814636 35.59477158 46.60691772 34.7559494 46.60565186 33.89170837 C46.46395879 28.14094553 45.3007361 24.73917581 42 20 C38.38231445 17.08443105 35.59343959 16.58984613 31 16.625 C29.989375 16.61726563 28.97875 16.60953125 27.9375 16.6015625 C23.79833697 17.16299153 21.43390868 18.14911163 18.82714844 21.51391602 C14.30409481 29.58892082 15.32109706 39.59517607 15.25 48.5625 C15.22180488 50.35224201 15.19187257 52.14195755 15.16015625 53.93164062 C15.08670994 58.28771264 15.03687932 62.64347121 15 67 C10.05 67 5.1 67 0 67 C0 44.89 0 22.78 0 0 Z " fill="#040404" transform="translate(485,135)"/>
<path d="M0 0 C0.84159668 0.00902344 1.68319336 0.01804688 2.55029297 0.02734375 C12.47051196 0.30370505 19.4342116 3.10306147 26.63671875 10.0625 C33.66912653 18.20669796 35.68442611 26.25966425 35.07421875 36.73046875 C34.02381271 46.79951248 29.76823925 53.73299769 22.5 60.6875 C13.76677584 67.65124737 3.50481294 68.55938289 -7.3125 67.4375 C-15.55214057 65.71901143 -21.91253647 60.76618066 -27.3125 54.4375 C-33.09513117 44.50357628 -35.15827962 34.45898739 -32.1875 23.1875 C-28.99739785 13.91394725 -21.74978534 6.30345828 -13.140625 1.765625 C-8.80702711 0.01150841 -4.62721898 -0.05905125 0 0 Z " fill="#040505" transform="translate(431.3125,134.5625)"/>
<path d="M0 0 C5.28 0 10.56 0 16 0 C19.90929617 9.50909878 23.56352326 19.10083755 27.11508179 28.74847412 C27.62232025 30.12619255 28.13064436 31.50351174 28.64004517 32.88043213 C29.36510363 34.84219574 30.08560636 36.80556995 30.8046875 38.76953125 C31.22733887 39.92042236 31.64999023 41.07131348 32.08544922 42.25708008 C33 45 33 45 33 47 C33.66 47 34.32 47 35 47 C35.08507812 46.23429687 35.17015625 45.46859375 35.2578125 44.6796875 C36.27764877 39.62344661 38.07316396 34.94927069 39.875 30.125 C40.22691406 29.16980469 40.57882812 28.21460938 40.94140625 27.23046875 C42.48711436 23.04154231 44.05136701 18.85966259 45.62109375 14.6796875 C46.82789395 11.45927449 48.0154683 8.23319091 49.1875 5 C49.785625 3.35 50.38375 1.7 51 0 C56.28 0 61.56 0 67 0 C66.29313227 4.24120636 65.69031733 7.22664418 64.19335938 11.08959961 C63.82206909 12.05598862 63.45077881 13.02237762 63.0682373 14.01805115 C62.66415649 15.05236771 62.26007568 16.08668427 61.84375 17.15234375 C61.42258911 18.24349991 61.00142822 19.33465607 60.56750488 20.45887756 C59.21700442 23.95384327 57.85859019 27.44567216 56.5 30.9375 C55.61667437 33.22050466 54.73385711 35.50370607 53.8515625 37.78710938 C52.10200819 42.31299458 50.34296355 46.83503559 48.578125 51.35498047 C46.86922394 55.7384496 45.19445689 60.13268445 43.546875 64.53955078 C43.15407349 65.57713028 42.76127197 66.61470978 42.35656738 67.68373108 C41.62511976 69.6172196 40.90319168 71.55435083 40.1932373 73.49583435 C36.63697767 82.82358458 31.70046043 89.74259404 22.9375 94.75 C16.76042966 97.22895586 9.55203575 96.68054287 3.25 95 C2.5075 94.67 1.765 94.34 1 94 C1.53851968 88.72250715 2.77343836 84.74354436 5 80 C5.73605469 80.03480469 6.47210937 80.06960937 7.23046875 80.10546875 C13.18156781 80.28250991 13.18156781 80.28250991 18.9375 79 C21.87065753 76.15572603 23.8859611 72.94977427 25 69 C24.40747193 64.15487809 22.46581835 59.7516597 20.68359375 55.24609375 C20.34884537 54.39056412 20.01409698 53.53503448 19.66920471 52.65357971 C18.5958304 49.91335407 17.51668361 47.1754422 16.4375 44.4375 C15.73856874 42.65443934 15.03999781 40.87123739 14.34179688 39.08789062 C11.48943033 31.81374512 8.63379555 24.54210375 5.68798828 17.30517578 C5.31642105 16.38897964 4.94485382 15.47278351 4.56202698 14.52882385 C3.85101552 12.778877 3.13566328 11.03068576 2.41539001 9.28453064 C1.93918968 8.11126976 1.93918968 8.11126976 1.45336914 6.91430664 C1.17191544 6.22857071 0.89046173 5.54283478 0.60047913 4.83631897 C0 3 0 3 0 0 Z " fill="#050606" transform="translate(796,135)"/>
<path d="M0 0 C0.66 0.66 1.32 1.32 2 2 C1.01 5.63 0.02 9.26 -1 13 C-4.3 13.66 -7.6 14.32 -11 15 C-11.66 19.29 -12.32 23.58 -13 28 C-9.37 28 -5.74 28 -2 28 C-2 32.62 -2 37.24 -2 42 C-5.63 42 -9.26 42 -13 42 C-13 59.49 -13 76.98 -13 95 C-18.28 95 -23.56 95 -29 95 C-29 77.84 -29 60.68 -29 43 C-31.64 43 -34.28 43 -37 43 C-37 37.72 -37 32.44 -37 27 C-34.36 27 -31.72 27 -29 27 C-29.0825 25.700625 -29.165 24.40125 -29.25 23.0625 C-29.25 16.50127582 -26.65117416 11.65367276 -23.25 6.1875 C-16.5616865 -0.31502702 -9.11404429 -1.11020936 0 0 Z " fill="#09090A" transform="translate(781,107)"/>
<path d="M0 0 C4.95 0 9.9 0 15 0 C15 0.66 15 1.32 15 2 C15.98097656 1.67257813 16.96195312 1.34515625 17.97265625 1.0078125 C22.17003805 -0.19143944 26.10233476 -0.22730211 30.4375 -0.125 C32.933125 -0.08375 35.42875 -0.0425 38 0 C38 5.28 38 10.56 38 16 C35.97875 16.226875 33.9575 16.45375 31.875 16.6875 C25.8916157 17.63600609 22.88053113 18.32346249 19 23 C13.54553327 31.13452036 14.33109004 40.67774217 14.25 50.0625 C14.22179912 51.70771317 14.19186603 53.3528976 14.16015625 54.99804688 C14.08677956 58.99864588 14.03690871 62.99890516 14 67 C9.38 67 4.76 67 0 67 C0 44.89 0 22.78 0 0 Z " fill="#030404" transform="translate(347,135)"/>
<path d="M0 0 C4.58119396 2.47708183 7.4033921 5.11928421 9.75 9.8125 C11.10989446 22.92945671 11.10989446 22.92945671 7.1875 28.4375 C2.45114351 33.57038866 -1.63182561 35.99492914 -8.6875 36.375 C-14.2943344 36.12119268 -18.26057067 34.83803277 -22.25 30.8125 C-25.99872107 25.5642905 -28.04898661 20.32305917 -27.59375 13.8359375 C-26.41153565 6.87699396 -21.72162051 2.81693195 -16.25 -1.1875 C-10.17176712 -3.21357763 -5.69520983 -2.68356268 0 0 Z " fill="#3C7BFC" transform="translate(130.25,150.1875)"/>
<path d="M0 0 C3.83287364 2.65063167 6.65129075 5.61508151 8.75 9.8125 C9.44420872 17.20980599 9.36648326 23.73225376 4.75 29.8125 C0.43038196 34.22027351 -2.85626923 35.97981233 -9 36.125 C-14.28099209 36.07446419 -17.25639067 35.50658863 -21.25 31.8125 C-25.61108333 27.20913426 -27.30138063 22.71571583 -27.625 16.4375 C-27.4847057 11.53545209 -26.19064978 7.74765524 -23.25 3.8125 C-16.73033325 -2.28361531 -8.04310813 -4.7868498 0 0 Z " fill="#F2FAFA" transform="translate(441.25,151.1875)"/>
<path d="M0 0 C4.89149447 2.41887089 8.03177151 6.33701319 9.83984375 11.37890625 C10.78903078 17.5601974 10.90065231 23.4076154 7.71484375 28.94140625 C4.57198449 33.17355195 0.83548728 35.71369174 -4.16015625 37.37890625 C-10.09131296 37.98207473 -13.47846496 37.28132341 -18.3984375 33.87890625 C-22.52984279 30.3612574 -24.83311277 26.13600702 -25.46875 20.77734375 C-25.75964715 13.95448323 -24.97062941 9.78258607 -20.9609375 4.21875 C-15.19424886 -1.6730295 -7.7493686 -2.22811864 0 0 Z " fill="#F3FAFA" transform="translate(657.16015625,150.62109375)"/>
<path d="M0 0 C4.10719435 1.8306352 7.44724301 4.21585767 9.89453125 8.02734375 C12.13258573 14.19235494 11.89482383 21.62355951 9.35546875 27.61328125 C6.50934238 32.43244692 3.23704201 35.91141087 -2.26171875 37.3515625 C-7.73913943 37.85873108 -11.46513276 37.05509279 -16.26171875 34.3515625 C-20.26127321 30.55382042 -23.85955433 26.40520626 -24.59765625 20.80078125 C-24.68901918 14.34142189 -24.2035699 10.53820875 -20.26171875 5.3515625 C-14.18819272 -0.59801402 -8.34665289 -2.39299547 0 0 Z " fill="#F4FAFA" transform="translate(298.26171875,150.6484375)"/>
<path d="M0 0 C4.95 0 9.9 0 15 0 C15 22.11 15 44.22 15 67 C10.05 67 5.1 67 0 67 C0 44.89 0 22.78 0 0 Z " fill="#030304" transform="translate(707,135)"/>
<path d="M0 0 C4.15798015 1.68088559 6.72972227 4.13211942 9 8 C9.93684277 13.63146598 9.20294692 18.19557962 6 23 C1.88393842 26.73018081 -2.23596442 27.45227468 -7.640625 27.42578125 C-11.73934118 26.68611227 -14.32939373 24.06801792 -17 21 C-19.08654031 16.82691937 -18.44906849 11.54530134 -18 7 C-13.63804983 -0.52060374 -7.99379463 -0.75125236 0 0 Z " fill="#F6FBFD" transform="translate(168,102)"/>
<path d="M0 0 C4.40508795 0.0396141 6.90160205 1.48395048 10.3125 4.3125 C11.91336627 7.51423254 11.81167089 10.83827059 11.3125 14.3125 C9.51886089 17.1225346 8.29369065 18.82190468 5.3125 20.3125 C2.25329426 20.73321592 -0.6342746 20.79764117 -3.6875 20.3125 C-6.44319447 18.13090855 -8.12338747 16.44072506 -9.6875 13.3125 C-10.0625 10 -10.0625 10 -9.6875 6.3125 C-7.25 3.4375 -7.25 3.4375 -4.6875 1.3125 C-3.6875 0.3125 -3.6875 0.3125 0 0 Z " fill="#060707" transform="translate(713.6875,101.6875)"/>
<path d="M0 0 C2.475 0.99 2.475 0.99 5 2 C4.01 2.66 3.02 3.32 2 4 C1.66185252 6.47491114 1.51127661 8.71351688 1.48828125 11.1953125 C1.47033005 11.90275604 1.45237885 12.61019958 1.43388367 13.33908081 C1.37965558 15.60099303 1.34584684 17.86269284 1.3125 20.125 C1.27933774 21.65758173 1.2448491 23.19013538 1.20898438 24.72265625 C1.12392273 28.48161779 1.05717247 32.240515 1 36 C0.67 36 0.34 36 0 36 C0 24.12 0 12.24 0 0 Z " fill="#D6DDDD" transform="translate(632,196)"/>
<path d="M0 0 C0.66 0.33 1.32 0.66 2 1 C1.16855469 1.81404297 1.16855469 1.81404297 0.3203125 2.64453125 C-0.76636719 3.71767578 -0.76636719 3.71767578 -1.875 4.8125 C-2.59429687 5.52019531 -3.31359375 6.22789062 -4.0546875 6.95703125 C-6.15358937 9.04399194 -6.15358937 9.04399194 -8 12 C-8.66 12 -9.32 12 -10 12 C-8.62968895 6.34746692 -4.32310587 3.4886459 0 0 Z " fill="#4782F4" transform="translate(114,149)"/>
</svg>
